HIERARCHY
ROOT Hips
{
    OFFSET 0.000000 0.000000 0.000000
    CHANNELS 6 Xposition Yposition Zposition Zrotation Xrotation Yrotation
    JOINT Spine
    {
        OFFSET -0.000000 14.517291 0.000000
        CHANNELS 3 Zrotation Xrotation Yrotation
        JOINT Spine1
        {
            OFFSET -0.000000 37.558300 0.000000
            CHANNELS 3 Zrotation Xrotation Yrotation
            JOINT Neck
            {
                OFFSET -0.000000 37.404057 3.400369
                CHANNELS 3 Zrotation Xrotation Yrotation
                JOINT Head
                {
                    OFFSET -0.000000 24.785618 -3.540803
                    CHANNELS 3 Zrotation Xrotation Yrotation
                    End Site
                    {
                        OFFSET -0.000000 35.408028 0.000000
                    }
                }
            }
            JOINT LeftShoulder
            {
                OFFSET 6.992933 33.973492 -0.192664
                CHANNELS 3 Zrotation Xrotation Yrotation
                JOINT LeftArm
                {
                    OFFSET 21.527611 0.000000 0.000000
                    CHANNELS 3 Zrotation Xrotation Yrotation
                    JOINT LeftForeArm
                    {
                        OFFSET 56.353916 0.000000 0.000000
                        CHANNELS 3 Zrotation Xrotation Yrotation
                        JOINT LeftHand
                        {
                            OFFSET 47.774071 0.000000 0.000000
                            CHANNELS 3 Zrotation Xrotation Yrotation
                            End Site
                            {
                                OFFSET 26.556021 0.000000 0.000000
                            }
                        }
                    }
                }
            }
            JOINT RightShoulder
            {
                OFFSET -7.065357 33.973492 -0.192664
                CHANNELS 3 Zrotation Xrotation Yrotation
                JOINT RightArm
                {
                    OFFSET -21.527611 0.000000 0.000000
                    CHANNELS 3 Zrotation Xrotation Yrotation
                    JOINT RightForeArm
                    {
                        OFFSET -56.353916 0.000000 0.000000
                        CHANNELS 3 Zrotation Xrotation Yrotation
                        JOINT RightHand
                        {
                            OFFSET -47.774071 0.000000 0.000000
                            CHANNELS 3 Zrotation Xrotation Yrotation
                            End Site
                            {
                                OFFSET -26.556021 0.000000 0.000000
                            }
                        }
                    }
                }
            }
        }
    }
    JOINT LeftUpLeg
    {
        OFFSET 17.704014 0.000000 0.000000
        CHANNELS 3 Zrotation Xrotation Yrotation
        JOINT LeftLeg
        {
            OFFSET -0.000000 -81.181816 0.000000
            CHANNELS 3 Zrotation Xrotation Yrotation
            JOINT LeftFoot
            {
                OFFSET -0.000000 -62.821102 0.000000
                CHANNELS 3 Zrotation Xrotation Yrotation
                JOINT LeftToeBase
                {
                    OFFSET -0.000000 -11.507608 26.556021
                    CHANNELS 3 Zrotation Xrotation Yrotation
                    End Site
                    {
                        OFFSET -0.000000 0.000000 7.081605
                    }
                }
            }
        }
    }
    JOINT RightUpLeg
    {
        OFFSET -17.704014 0.000000 0.000000
        CHANNELS 3 Zrotation Xrotation Yrotation
        JOINT RightLeg
        {
            OFFSET -0.000000 -81.181816 0.000000
            CHANNELS 3 Zrotation Xrotation Yrotation
            JOINT RightFoot
            {
                OFFSET -0.000000 -62.821102 0.000000
                CHANNELS 3 Zrotation Xrotation Yrotation
                JOINT RightToeBase
                {
                    OFFSET -0.000000 -11.507608 26.556021
                    CHANNELS 3 Zrotation Xrotation Yrotation
                    End Site
                    {
                        OFFSET -0.000000 0.000000 7.081605
                    }
                }
            }
        }
    }
}
MOTION
Frames:    6
Frame Time:    0.008333
4.304886    164.046219    -100.910187    -4.522482    -5.031889    41.697212    1.391197    -3.015221    -1.679734    -5.659722    -4.259157    -0.786059    12.193122    -6.897544    -5.136773    4.581346    8.540777    -7.604034    9.850983    4.367561    -22.471964    -25.561810    20.704365    -68.470337    -18.074888    -0.844005    -82.618019    15.654131    -17.408604    -5.205151    -14.258324    -6.752103    -2.889960    23.092607    -25.685694    65.919334    -5.522140    -7.098670    45.258419    -11.471840    -7.852970    29.812773    11.225838    4.071170    -6.368606    -8.460403    9.900785    -19.046715    4.507559    -13.275046    43.203098    0.000000    0.000000    0.000000    -10.484909    -12.016603    -17.910542    3.293940    3.767049    -16.723989    14.513383    28.215446    -18.738810    0.000000    0.000000    0.000000    
4.215336    164.069458    -100.766632    -4.551846    -5.005433    41.744808    1.396175    -3.029034    -1.708974    -5.654969    -4.263162    -0.795976    12.209771    -6.942964    -5.142934    4.564672    8.467429    -7.617038    9.875004    4.372906    -22.469013    -25.543358    20.694794    -68.540306    -18.033937    -0.931445    -82.595062    15.623761    -17.449129    -5.208725    -14.262891    -6.776035    -2.921472    23.013170    -25.586716    65.838829    -5.637671    -7.253235    45.397411    -11.442039    -7.941585    29.795286    11.278295    4.071377    -6.322960    -8.402976    9.829713    -19.029818    4.371027    -13.268698    43.105713    0.000000    0.000000    0.000000    -10.441842    -12.027627    -17.870293    3.287547    3.796375    -16.761791    14.536564    28.130877    -18.713753    0.000000    0.000000    0.000000    
4.119448    164.097229    -100.634453    -4.597496    -4.971644    41.789112    1.401650    -3.055931    -1.746873    -5.654618    -4.273912    -0.809256    12.340577    -6.943170    -5.061575    4.483613    8.316442    -7.559594    9.927780    4.366267    -22.488411    -25.537659    20.716558    -68.561127    -17.984011    -1.040297    -82.617378    15.726879    -17.519505    -5.208863    -14.245075    -6.810431    -2.927258    23.084419    -25.636915    65.861443    -5.552816    -7.195456    45.456966    -11.471837    -7.932703    29.879589    11.339400    4.067220    -6.293215    -8.352666    9.719095    -18.989603    4.238781    -13.245381    42.999523    0.000000    0.000000    0.000000    -10.396559    -12.056650    -17.837421    3.292911    3.814404    -16.770824    14.572741    28.065025    -18.711567    0.000000    0.000000    0.000000    
4.030281    164.129196    -100.512314    -4.640190    -4.931150    41.810577    1.384984    -3.097672    -1.782095    -5.593294    -4.257247    -0.817896    12.246866    -7.033145    -5.110184    4.549259    8.350150    -7.596821    9.907681    4.353119    -22.494606    -25.525141    20.735048    -68.542305    -17.877165    -1.124683    -82.643692    15.696425    -17.503546    -5.143014    -14.277322    -6.870854    -2.912739    23.059402    -25.574282    65.826569    -5.644680    -7.232115    45.486927    -11.485791    -7.934394    29.891895    11.390247    4.068155    -6.261913    -8.313762    9.600949    -18.957802    4.114802    -13.198730    42.931927    0.000000    0.000000    0.000000    -10.365040    -12.100075    -17.766155    3.320259    3.840594    -16.819817    14.545566    28.016296    -18.676888    0.000000    0.000000    0.000000    
3.945115    164.166122    -100.409027    -4.693569    -4.885158    41.813843    1.397031    -3.120367    -1.799307    -5.541898    -4.274636    -0.822764    12.164701    -7.091751    -5.130607    4.611750    8.319530    -7.601273    9.854328    4.335800    -22.484804    -25.479082    20.780195    -68.535828    -17.830509    -1.230184    -82.683372    15.583925    -17.566465    -5.123656    -14.317428    -6.863014    -2.942282    23.177443    -25.675406    65.970917    -5.537412    -7.135338    45.451550    -11.524129    -7.890169    29.850046    11.440025    4.063168    -6.246448    -8.280737    9.467455    -18.923143    3.995244    -13.143919    42.897869    0.000000    0.000000    0.000000    -10.331023    -12.167259    -17.700493    3.344840    3.865723    -16.833427    14.558079    27.992407    -18.701733    0.000000    0.000000    0.000000    
3.848928    164.215729    -100.321686    -4.785088    -4.823322    41.835709    1.420251    -3.183342    -1.822924    -5.520998    -4.283228    -0.830758    12.250832    -7.119359    -5.073620    4.564503    8.219425    -7.562533    9.887957    4.313858    -22.524038    -25.575708    20.719358    -68.514633    -17.905386    -1.169406    -82.621109    15.623229    -17.564526    -5.163942    -14.293655    -6.850752    -2.975556    23.063715    -25.576662    65.927498    -5.707641    -7.308674    45.531384    -11.455796    -7.956328    29.725208    11.509607    3.993462    -6.242675    -8.258768    9.366795    -18.902412    3.883373    -13.078950    42.870888    0.000000    0.000000    0.000000    -10.277148    -12.273844    -17.673435    3.357178    3.883812    -16.829670    14.559915    28.006252    -18.736769    0.000000    0.000000    0.000000    
